<svg xmlns="http://www.w3.org/2000/svg" viewBox="0 0 512 512">
  <rect width="512" height="512" rx="96" fill="#6d28d9"/>
  <g transform="translate(64 64) scale(16)" fill="none" stroke="white" stroke-width="1.5" stroke-linecap="round" stroke-linejoin="round">
    <path d="M15.5 13a3.5 3.5 0 0 0 -3.5 3.5v1a3.5 3.5 0 0 0 3.5 3.5a3.5 3.5 0 0 0 3.5 -3.5v-1a3.5 3.5 0 0 0 -3.5 -3.5z" />
    <path d="M11.5 13a3.5 3.5 0 0 1 3.5 3.5v1a3.5 3.5 0 0 1 -3.5 3.5a3.5 3.5 0 0 1 -3.5 -3.5v-1a3.5 3.5 0 0 1 3.5 -3.5z" />
    <path d="M15 13v-3.5a3.5 3.5 0 0 0 -3.5 -3.5a3.5 3.5 0 0 0 -3.5 3.5v3.5" />
    <path d="M18.5 14.5a3.5 3.5 0 0 0 0 -7h-1a3.5 3.5 0 0 0 -3.5 3.5" />
    <path d="M5.5 14.5a3.5 3.5 0 0 1 0 -7h1a3.5 3.5 0 0 1 3.5 3.5" />
    <path d="M12 4a3.5 3.5 0 0 1 3.5 3.5" />
    <path d="M12 4a3.5 3.5 0 0 0 -3.5 3.5" />
  </g>
</svg>