<svg xmlns="http://www.w3.org/2000/svg" viewBox="0 0 512 512">
  <rect width="512" height="512" rx="96" fill="#6d28d9"/>
  <g transform="translate(15, 30)">
    <path fill="white" d="M440.3,136.3c-1-3.4-3.1-6.4-6-8.9c-16.3-13.9-38.3-10.3-51.2,6.5c-3.1,4-5.2,8.6-6.3,13.4c-9,40.4-36.9,72.6-75.7,85.2 c-12.3,4-25.1,5.6-37.8,5.6c-13.8,0-27.9-1.9-41.6-6.1c-38.2-11.5-67.9-41.2-79.4-79.4c-4.2-13.8-6.1-27.9-6.1-41.6 c0-12.7,1.6-25.4,5.6-37.8c12.6-38.8,44.8-66.7,85.2-75.7c4.8-1.1,9.4-3.2,13.4-6.3c16.8-12.9,20.4-34.9,6.5-51.2 c-2.6-3-5.5-5.1-8.9-6c-4-1.2-8.2-1.2-12.3,0.1c-43.2,12.9-80.1,43-104.9,83.1C28,154.1,16,197.8,16,242.9 c0,88.4,71.6,160,160,160c88.4,0,160-71.6,160-160c0-2.8-0.2-5.5-0.4-8.3c15.8,5.9,33.1,8.3,49.6,8.3c53,0,96-43,96-96 C481.2,169.5,464.2,149.7,440.3,136.3z M296,242.9c0,53-43,96-96,96s-96-43-96-96s43-96,96-96S296,189.9,296,242.9z"/>
  </g>
</svg>