<svg xmlns="http://www.w3.org/2000/svg" width="512" height="512" viewBox="0 0 512 512">
  <rect width="512" height="512" rx="96" fill="#6d28d9" />
  <g transform="translate(100, 110) scale(13.5)" stroke="white" fill="none" stroke-width="1.8" stroke-linecap="round" stroke-linejoin="round">
   <path d="M15.5 13a3.5 3.5 0 0 0 -3.5 3.5v1a3.5 3.5 0 0 0 7 0v-1.8" />
   <path d="M8.5 13a3.5 3.5 0 0 1 3.5 3.5v1a3.5 3.5 0 0 1 -7 0v-1.8" />
   <path d="M17.5 16a3.5 3.5 0 0 0 0 -7h-1.5" />
   <path d="M6.5 16a3.5 3.5 0 0 1 0 -7h1.5" />
   <path d="M16 5.5m-2.5 0a2.5 2.5 0 1 0 5 0a2.5 2.5 0 1 0 -5 0" />
   <path d="M8 5.5m-2.5 0a2.5 2.5 0 1 0 5 0a2.5 2.5 0 1 0 -5 0" />
   <path d="M12 4v5" />
   <path d="M12 13v5" />
  </g>
</svg>