<svg xmlns="http://www.w3.org/2000/svg" viewBox="0 0 512 512">
  <rect width="512" height="512" rx="96" fill="#6d28d9" />
  <g transform="scale(0.8) translate(64, 64)" stroke="white" stroke-width="25" stroke-linecap="round" stroke-linejoin="round" fill="none">
    <path d="M265.4,93.4c18.5,4.7,35.4,12.9,49.8,24.1c16.3,12.7,29.3,28.8,38.2,47.1c11.3,23.3,16,49.2,13.7,75.1c-2.3,25.9-11.2,50.7-26,72.2c-12.8,18.6-29.2,34.2-48.2,45.8c-18.4,11.2-38.9,18-60.5,19.9c-21.6,1.9-43.6-0.9-64.2-8.3c-20.6-7.4-39.6-19.3-55.8-34.7c-16.2-15.4-29.3-34.2-38.3-55.2c-9-21-13.8-43.9-13.8-67.2c0-23.3,4.8-46.2,13.8-67.2c9-21,22.1-39.8,38.3-55.2c16.2-15.4,35.2-27.3,55.8-34.7C203,77.2,223,73,243,76.1c10,1.5,19.8,4.1,29.2,7.7C262.8,80.1,253.2,85.2,265.4,93.4z"/>
    <path d="M256,76v108.8c0,0-16.8,16.8-16.8,33.5s16.8,33.5,16.8,33.5V436"/>
    <path d="M336,165c0,0-21,21-21,42s21,42,21,42"/>
    <path d="M176,165c0,0,21,21,21,42s-21,42-21,42"/>
    <path d="M312,321c-15.5-12.5-36.8-21-60-21c-20.2,0-38.8,6.8-54.4,18.1"/>
  </g>
</svg>